<svg xmlns="http://www.w3.org/2000/svg" xmlns:xlink="http://www.w3.org/1999/xlink" width="256" zoomAndPan="magnify" viewBox="0 0 192 199.92" height="256" preserveAspectRatio="xMidYMid meet" version="1.0"><path fill="#000000" d="M 47.003906 31.382812 C 48.132812 27.964844 48.757812 27.832031 50.566406 27.46875 C 50.902344 26.242188 51.238281 24.503906 53.964844 22.753906 C 68.445312 13.453125 126.71875 13.363281 138.9375 23.628906 C 141.089844 25.433594 141.011719 27.09375 141.195312 27.460938 C 143.011719 27.878906 143.703125 27.992188 144.757812 31.488281 C 146.464844 31.6875 147.332031 32.546875 147.621094 33.8125 C 148.058594 35.734375 147.1875 36.921875 145.914062 38.199219 C 144.9375 39.183594 133.207031 92.386719 131.429688 94.632812 C 128.796875 97.960938 122.933594 102.355469 119.566406 104.847656 C 118.359375 105.738281 118.558594 105.289062 118.664062 106.796875 C 118.992188 111.335938 120.007812 121.566406 121.296875 130.097656 C 126.398438 163.875 127.65625 163.875 123.964844 167.449219 C 112.804688 178.265625 71.410156 176.511719 66.140625 165.195312 C 65.105469 162.960938 65.1875 163.214844 68.191406 144.15625 C 73.910156 107.902344 72.59375 108.167969 73.125 106.011719 C 73.492188 104.527344 60.714844 98.113281 59.304688 92.265625 C 55.550781 76.6875 55.660156 78.089844 46.359375 38.871094 C 46.113281 37.84375 44.527344 37.554688 44.117188 35.253906 C 43.847656 33.773438 44.375 32.480469 45.578125 31.855469 C 45.992188 31.648438 46.464844 31.566406 47.003906 31.382812 Z M 76.078125 107.308594 C 75.640625 110.40625 75.46875 115.640625 73.378906 129.769531 C 72.332031 136.804688 70.28125 149.65625 68.5 161.554688 C 67.042969 171.257812 104.5625 176.125 120.238281 166.472656 C 122.019531 165.375 123.554688 163.859375 123.246094 161.773438 C 119.160156 133.917969 118.148438 133.097656 115.699219 107.199219 C 102.496094 110.550781 89.335938 110.398438 76.078125 107.308594 Z M 136.710938 27.070312 C 139.480469 23.050781 105.988281 15.320312 72.113281 20.507812 C 66.082031 21.429688 50.710938 24.886719 55.910156 28.078125 C 70.390625 36.972656 131.078125 35.238281 136.710938 27.070312 Z M 78.082031 41.6875 C 78.464844 40.882812 79.003906 40.371094 79.910156 40.410156 C 80.972656 40.453125 81.519531 41.125 81.871094 42.101562 L 93.957031 42.671875 C 94.863281 40.628906 97.003906 40.902344 97.78125 42.632812 C 99.035156 42.601562 100.246094 42.585938 101.457031 42.527344 C 110.171875 42.085938 109.957031 42.246094 110.140625 41.636719 C 110.546875 40.289062 112.269531 39.722656 113.4375 41.070312 C 113.589844 41.246094 113.710938 41.453125 113.847656 41.652344 C 117.332031 41.230469 120.808594 40.828125 124.253906 40.15625 C 124.492188 38.125 126.800781 37.292969 128.152344 39.335938 C 130.773438 38.816406 133.328125 38.15625 135.84375 37.371094 C 135.859375 37.269531 135.882812 37.21875 135.882812 37.171875 C 135.882812 35.574219 137.648438 34.589844 139.105469 35.746094 C 139.242188 35.855469 139.375 35.976562 139.519531 36.089844 C 142.050781 34.773438 141.660156 35.007812 142.378906 34.460938 C 142.605469 34.285156 142.652344 34.070312 142.558594 33.789062 C 141.605469 30.851562 141.964844 30.523438 139.847656 31.535156 C 119.472656 41.269531 63.109375 39.3125 51.609375 31.125 C 50.046875 30.003906 49.855469 32.152344 49.300781 33.621094 C 48.996094 34.421875 49.613281 34.78125 52.371094 36.121094 C 52.578125 36.21875 53.160156 34.871094 54.707031 35.390625 C 55.644531 35.703125 56.046875 36.433594 56.003906 37.421875 C 58.570312 38.285156 61.164062 38.953125 63.792969 39.480469 C 64.863281 37.691406 67.203125 37.886719 67.644531 40.292969 C 71.113281 40.898438 74.566406 41.390625 78.082031 41.6875 Z M 103.257812 100.597656 C 103.464844 99.941406 108.425781 48.285156 108.351562 47.644531 C 106.183594 48.148438 103.980469 48.253906 101.753906 48.179688 C 101.578125 49.625 98.742188 99.566406 98.804688 100.839844 Z M 93.003906 100.855469 L 90 48.164062 C 87.78125 48.261719 85.644531 48.132812 83.519531 47.730469 C 83.519531 49.160156 88.359375 99.742188 88.566406 100.65625 Z M 99.789062 48.078125 C 99.308594 47.890625 97.59375 47.667969 95.929688 46.769531 C 95.519531 46.546875 95.921875 46.777344 91.988281 47.996094 C 91.988281 48.902344 94.65625 98.347656 94.9375 100.902344 C 96.105469 100.902344 95.609375 100.917969 96.824219 100.855469 C 97.898438 83.246094 98.902344 65.679688 99.789062 48.078125 Z M 111.078125 99.742188 C 111.277344 98.761719 113.695312 46.457031 113.582031 45.871094 C 113.261719 45.832031 112.964844 45.65625 112.605469 45.871094 C 110.773438 46.980469 110.410156 46.800781 110.355469 47.460938 C 109.84375 53.234375 105.308594 99.484375 105.355469 100.421875 Z M 78.234375 45.9375 C 78.234375 47.371094 80.589844 97.542969 80.742188 99.78125 C 82.695312 100.03125 84.601562 100.328125 86.558594 100.460938 C 86.339844 97.328125 83.945312 74.3125 81.550781 47.621094 C 81.480469 46.859375 80.8125 47.058594 79.476562 46.054688 C 79.074219 45.757812 78.722656 45.664062 78.234375 45.9375 Z M 113.0625 99.148438 C 113.761719 97.175781 123.386719 47.578125 123.589844 45.109375 C 120.960938 45.800781 118.300781 46.015625 115.554688 45.960938 Z M 68.308594 45.140625 C 68.445312 46.800781 74.347656 78.140625 78.636719 99.027344 C 78.929688 100.453125 78.835938 100.164062 76.265625 46.03125 C 73.582031 46.046875 70.945312 45.878906 68.308594 45.140625 Z M 127.328125 43.667969 C 125.878906 44.414062 125.71875 44.386719 125.613281 44.980469 C 120.800781 71.121094 115.714844 96.15625 115.226562 98.890625 C 115.988281 98.84375 118.644531 98.144531 120.625 97.421875 C 121.203125 97.207031 120.976562 97.464844 123.453125 76.871094 C 123.554688 76.140625 127.328125 44.445312 127.328125 43.667969 Z M 64.496094 43.753906 C 64.496094 44.515625 64.488281 43.753906 70.832031 97.039062 C 70.898438 97.609375 70.855469 97.753906 76.703125 99.074219 C 75.671875 94.097656 69.605469 63.746094 66.316406 44.925781 C 66.242188 44.507812 66.308594 44.621094 64.496094 43.753906 Z M 123.058594 96.246094 C 127.632812 78.394531 131.984375 60.488281 136.21875 42.464844 C 133.945312 43.304688 131.65625 43.617188 129.300781 43.746094 C 127.265625 61.292969 125.167969 78.773438 123.058594 96.246094 Z M 55.765625 42.550781 C 72.308594 113.140625 69.03125 98.074219 67.371094 84.144531 C 63.144531 48.742188 62.710938 44.324219 62.453125 43.761719 C 60.210938 43.585938 58.007812 43.328125 55.765625 42.550781 Z M 121.601562 99.195312 C 121.441406 98.820312 115.394531 102.058594 98.347656 102.636719 C 71.835938 103.535156 63.488281 93.945312 76.472656 103.976562 C 76.808594 104.238281 77.160156 104.429688 77.585938 104.519531 C 96.714844 108.738281 113.742188 105.097656 115.265625 103.972656 C 116.796875 102.828125 118.246094 101.730469 121.601562 99.195312 Z M 66.683594 96.132812 C 66.578125 95.25 66.011719 93.476562 60.90625 72.40625 C 53.257812 40.867188 53.929688 41.582031 52.800781 40.980469 C 52.023438 40.5625 51.746094 38.6875 52.960938 44.851562 C 59.699219 79.0625 53.457031 48.894531 62.269531 92.1875 C 62.558594 93.589844 63.289062 93.992188 66.683594 96.132812 Z M 139.695312 40.394531 C 139.441406 40.273438 139.648438 40.339844 138.777344 41.140625 C 138.222656 41.652344 138.527344 41.09375 135.5625 53.503906 C 129.988281 76.839844 125.160156 95.523438 125.207031 96.019531 C 125.445312 95.949219 125.246094 96.078125 128.914062 93.496094 C 130.042969 92.699219 139.695312 40.402344 139.695312 40.394531 Z M 55.84375 69.710938 C 55.8125 69.472656 52.96875 54.84375 50.78125 43.796875 C 49.902344 39.359375 50.527344 40.195312 48.492188 39.578125 C 48.988281 42.273438 55.492188 68.972656 55.84375 69.710938 Z M 143.332031 39.722656 C 141.722656 40.082031 141.8125 39.867188 141.652344 40.667969 C 133.746094 80.882812 133.769531 79.582031 143.332031 39.722656 Z M 80.78125 44.53125 C 83.464844 46.523438 90.730469 47.21875 94.65625 45.070312 C 94.351562 44.917969 94.132812 44.941406 93.925781 44.933594 C 80.796875 44.421875 81.277344 44.050781 80.78125 44.53125 Z M 97.195312 45.039062 C 97.78125 46.464844 107.152344 47.339844 111.132812 44.445312 C 110.5 44.1875 110.621094 44.339844 103.152344 44.71875 C 97.195312 45.015625 98.621094 44.8125 97.195312 45.039062 Z M 114.046875 43.941406 C 115.179688 44.394531 122.957031 44.058594 125.511719 42.398438 L 125.453125 42.238281 C 121.675781 43.015625 117.84375 43.328125 114.046875 43.941406 Z M 66.257812 42.375 C 69.144531 44.261719 77.066406 44.363281 77.945312 44.035156 Z M 137.542969 39.554688 L 137.484375 39.402344 C 137.238281 39.449219 136.996094 39.480469 136.757812 39.539062 C 128.433594 41.78125 128.515625 41.46875 128.113281 41.824219 C 128.921875 41.933594 134.898438 41.847656 137.542969 39.554688 Z M 63.609375 41.925781 C 63.601562 41.8125 54.660156 39.425781 54.21875 39.425781 L 54.164062 39.527344 C 55.371094 40.523438 56.832031 41.078125 58.3125 41.324219 C 58.9375 41.421875 63.128906 42.007812 63.609375 41.925781 Z M 140.179688 38.167969 C 142.300781 38.382812 145.167969 36.84375 145.753906 35.246094 C 143.589844 35.710938 145.328125 35.945312 140.179688 38.167969 Z M 46.066406 35.269531 C 46.996094 37.148438 49.070312 37.765625 51.441406 38.335938 C 51.519531 38.359375 51.617188 38.308594 51.734375 38.285156 C 51.617188 38.140625 51.726562 38.183594 51.238281 37.980469 C 47.144531 36.234375 48.386719 35.808594 46.066406 35.269531 Z M 46.066406 35.269531 " fill-opacity="1" fill-rule="nonzero"/></svg>