<svg xmlns="http://www.w3.org/2000/svg" xmlns:xlink="http://www.w3.org/1999/xlink" width="256" zoomAndPan="magnify" viewBox="0 0 192 199.92" height="256" preserveAspectRatio="xMidYMid meet" version="1.0"><defs><clipPath id="15137de84a"><path d="M 59 92 L 170 92 L 170 178.09375 L 59 178.09375 Z M 59 92 " clip-rule="nonzero"/></clipPath><clipPath id="d68f689d5c"><path d="M 19.230469 42 L 70 42 L 70 130 L 19.230469 130 Z M 19.230469 42 " clip-rule="nonzero"/></clipPath></defs><g clip-path="url(#15137de84a)"><path fill="#000000" d="M 109.070312 95.890625 C 105.101562 107.082031 96.535156 135.75 94.746094 139.476562 C 85.039062 134.34375 70.832031 135.648438 64.222656 142.15625 C 57.5 148.777344 57.378906 158.980469 65.105469 164.742188 C 71.605469 169.589844 81.867188 170.820312 88.925781 166.296875 C 99.328125 159.632812 100.234375 149.28125 103.9375 138.449219 C 105.777344 133.078125 107.605469 127.667969 109.128906 122.300781 C 112.472656 110.324219 113.582031 111.300781 120.332031 111.734375 L 148.78125 113.765625 C 158.992188 115.171875 158.777344 113.523438 155.949219 122.394531 C 152.992188 131.667969 148.414062 145.976562 147.347656 148.601562 C 142.289062 145.464844 131.019531 141.851562 118.65625 149.226562 C 104.683594 157.558594 110.53125 178.09375 129.585938 178.09375 C 136.933594 178.09375 145.3125 173.84375 148.476562 167.601562 L 156.050781 145.796875 C 161.21875 130.167969 163.929688 122.476562 168.464844 106.527344 C 171.410156 96.160156 170.429688 97.222656 149.96875 93.546875 C 138.617188 91.503906 127.195312 92.457031 115.832031 92.113281 C 111.367188 91.976562 110.457031 91.976562 109.070312 95.890625 Z M 109.070312 95.890625 " fill-opacity="1" fill-rule="evenodd"/></g><g clip-path="url(#d68f689d5c)"><path fill="#000000" d="M 19.246094 44.777344 C 22.953125 52.917969 32.371094 65.921875 38.882812 75.480469 C 41.503906 79.328125 48.738281 90.378906 49.535156 92.109375 C 40.210938 94.34375 32.886719 101.183594 30.832031 109.421875 C 29.144531 116.1875 29.8125 124.089844 36.019531 127.890625 C 46.402344 134.25 59.761719 124.566406 62.4375 113.445312 C 63.828125 107.675781 63.402344 106.257812 62.132812 100.980469 C 61.523438 98.429688 52.234375 84.445312 50.46875 81.832031 C 48.050781 78.25 39.628906 65.523438 38.597656 62.390625 C 44.175781 62.355469 48.691406 61.300781 54.355469 63.34375 C 59.332031 65.140625 62.730469 68.964844 63.824219 75.773438 C 64.308594 78.792969 63.136719 82.671875 67.035156 81.734375 C 70.125 80.996094 71.164062 68.195312 66.003906 58.394531 C 63.203125 53.070312 55.226562 48 49.421875 46.632812 C 42.144531 46.019531 34.632812 46.117188 27.65625 43.933594 C 23.414062 42.601562 21.253906 41.0625 19.246094 44.777344 Z M 19.246094 44.777344 " fill-opacity="1" fill-rule="evenodd"/></g><path fill="#000000" d="M 97.359375 76.9375 C 106.039062 76.9375 111.550781 70.902344 112.589844 62.925781 L 115.707031 36.308594 L 121.789062 40.636719 C 125.324219 43.839844 126.046875 48.75 124.058594 53.078125 C 123.464844 54.371094 120.96875 57.015625 121.917969 58.546875 C 122.679688 59.78125 125.808594 57.328125 127.492188 55.519531 C 131.800781 50.886719 133.324219 44.597656 131.386719 37.984375 C 129.09375 30.160156 121.589844 27.199219 118.179688 21.945312 C 112.960938 13.914062 112.75 18.058594 112.191406 24.871094 C 111.886719 27.761719 109.464844 55.890625 108.660156 56.269531 C 102.761719 54.777344 95.671875 53.632812 90.769531 58.464844 C 78.867188 70.203125 90.21875 76.9375 97.359375 76.9375 Z M 97.359375 76.9375 " fill-opacity="1" fill-rule="evenodd"/></svg>