<svg xmlns="http://www.w3.org/2000/svg" xmlns:xlink="http://www.w3.org/1999/xlink" width="256" zoomAndPan="magnify" viewBox="0 0 192 199.92" height="256" preserveAspectRatio="xMidYMid meet" version="1.0"><defs><clipPath id="329d718fbb"><path d="M 11.722656 24.746094 L 180.40625 24.746094 L 180.40625 167.191406 L 11.722656 167.191406 Z M 11.722656 24.746094 " clip-rule="nonzero"/></clipPath></defs><g clip-path="url(#329d718fbb)"><path fill="#000000" d="M 106.238281 167.191406 C 100.199219 167.191406 93.082031 166.703125 88.84375 164.761719 C 84.234375 162.648438 66.328125 153.371094 48.53125 143.175781 C 38.730469 137.5625 30.777344 132.699219 24.886719 128.730469 C 14.699219 121.867188 12.679688 119.019531 12.015625 116.964844 C 11.316406 114.8125 11.472656 111.019531 17.296875 97.980469 C 20.855469 90.011719 26.046875 79.75 31.914062 69.085938 C 37.683594 58.597656 43.601562 48.636719 48.570312 41.039062 C 57.433594 27.488281 60.160156 26.261719 61.320312 25.734375 C 62.742188 25.09375 65.34375 24.421875 72.898438 24.921875 C 77.433594 25.222656 83.136719 25.914062 89.398438 26.917969 C 99.585938 28.554688 112.816406 31.347656 117.792969 33.613281 C 122.035156 35.542969 136.835938 44.214844 151.300781 53.566406 C 159.078125 58.59375 165.660156 63.121094 170.34375 66.667969 C 178.273438 72.671875 180.050781 75.230469 180.34375 77.414062 C 180.5 78.5625 180.757812 80.484375 175.339844 93.644531 C 172.328125 100.964844 168.128906 110.351562 163.523438 120.066406 C 158.859375 129.902344 154.1875 139.203125 150.375 146.25 C 143.488281 158.964844 141.503906 160.457031 140.65625 161.097656 C 135.398438 165.050781 120.367188 166.476562 115.886719 166.820312 C 114.039062 166.960938 110.390625 167.191406 106.238281 167.191406 Z M 18.800781 114.835938 C 19.492188 115.863281 24.078125 121.0625 52.84375 137.492188 C 70.195312 147.40625 87.425781 156.328125 91.792969 158.332031 C 95.414062 159.992188 104.878906 160.570312 115.347656 159.769531 C 126.386719 158.921875 134.410156 156.921875 136.382812 155.457031 C 136.605469 155.261719 138.410156 153.492188 144.179688 142.828125 C 147.839844 136.066406 152.328125 127.136719 156.820312 117.683594 C 161.246094 108.371094 165.339844 99.265625 168.34375 92.046875 C 172.136719 82.933594 173.035156 79.609375 173.25 78.535156 C 171.777344 76.59375 164.75 70.613281 146.097656 58.625 C 132.792969 50.074219 118.628906 41.765625 114.859375 40.050781 C 111.242188 38.402344 99.867188 35.765625 88.394531 33.917969 C 82.371094 32.949219 76.898438 32.28125 72.570312 31.988281 C 66.269531 31.558594 64.507812 32.082031 64.261719 32.171875 C 63.898438 32.398438 61.492188 34.183594 54.347656 45.132812 C 49.605469 52.398438 43.957031 61.90625 38.4375 71.90625 C 32.84375 82.042969 27.824219 91.898438 24.296875 99.664062 C 19.332031 110.597656 18.835938 114.023438 18.800781 114.835938 Z M 18.804688 115.027344 Z M 173.472656 78.875 L 173.472656 78.878906 Z M 64.289062 32.152344 Z M 64.289062 32.152344 " fill-opacity="1" fill-rule="nonzero"/></g><path fill="#000000" d="M 167.332031 80.914062 C 167.308594 80.914062 167.285156 80.914062 167.261719 80.914062 C 166.347656 80.878906 144.769531 80.003906 132.644531 75.09375 C 120.667969 70.25 68.609375 38.558594 66.398438 37.210938 C 65.566406 36.703125 65.300781 35.617188 65.808594 34.78125 C 66.320312 33.949219 67.40625 33.683594 68.242188 34.195312 C 68.78125 34.523438 122.261719 67.078125 133.972656 71.816406 C 145.523438 76.492188 167.179688 77.371094 167.398438 77.378906 C 168.371094 77.417969 169.132812 78.238281 169.097656 79.214844 C 169.058594 80.167969 168.277344 80.914062 167.332031 80.914062 Z M 167.332031 80.914062 " fill-opacity="1" fill-rule="nonzero"/><path fill="#000000" d="M 92.5625 154.710938 C 92.277344 154.710938 91.988281 154.640625 91.71875 154.496094 C 90.863281 154.03125 90.546875 152.960938 91.007812 152.105469 C 91.59375 150.996094 131.332031 73.433594 131.734375 72.652344 C 132.179688 71.78125 133.246094 71.4375 134.113281 71.882812 C 134.984375 72.328125 135.328125 73.394531 134.882812 74.261719 C 130.742188 82.34375 94.421875 153.230469 94.117188 153.789062 C 93.796875 154.378906 93.191406 154.710938 92.5625 154.710938 Z M 92.5625 154.710938 " fill-opacity="1" fill-rule="nonzero"/><path fill="#000000" d="M 73.722656 69.347656 C 70.71875 74.855469 64.261719 77.128906 59.296875 74.425781 C 54.332031 71.722656 52.742188 65.066406 55.746094 59.558594 C 58.75 54.050781 65.207031 51.777344 70.171875 54.480469 C 75.136719 57.183594 76.726562 63.839844 73.722656 69.347656 Z M 73.722656 69.347656 " fill-opacity="1" fill-rule="nonzero"/><path fill="#000000" d="M 63.800781 77.335938 C 61.933594 77.335938 60.109375 76.878906 58.449219 75.976562 C 52.636719 72.8125 50.726562 65.066406 54.191406 58.710938 C 57.660156 52.355469 65.207031 49.761719 71.019531 52.929688 C 76.832031 56.09375 78.742188 63.839844 75.277344 70.191406 C 73.613281 73.242188 70.96875 75.527344 67.832031 76.632812 C 66.496094 77.101562 65.136719 77.335938 63.800781 77.335938 Z M 65.664062 55.109375 C 62.425781 55.109375 59.121094 57.0625 57.300781 60.402344 C 54.769531 65.046875 56.042969 70.640625 60.144531 72.871094 C 62.097656 73.9375 64.410156 74.085938 66.65625 73.296875 C 68.96875 72.484375 70.925781 70.78125 72.167969 68.5 C 74.699219 63.859375 73.425781 58.265625 69.324219 56.03125 C 68.175781 55.40625 66.925781 55.109375 65.664062 55.109375 Z M 65.664062 55.109375 " fill-opacity="1" fill-rule="nonzero"/><path fill="#000000" d="M 85.144531 112.027344 C 85.734375 112.347656 86.285156 112.730469 86.792969 113.175781 C 87.300781 113.617188 87.761719 114.113281 88.167969 114.660156 C 88.578125 115.207031 88.929688 115.796875 89.222656 116.429688 C 89.511719 117.058594 89.742188 117.71875 89.90625 118.410156 C 90.070312 119.101562 90.167969 119.808594 90.199219 120.53125 C 90.230469 121.253906 90.195312 121.976562 90.089844 122.707031 C 89.988281 123.433594 89.816406 124.152344 89.582031 124.855469 C 89.347656 125.558594 89.050781 126.238281 88.695312 126.894531 C 88.335938 127.550781 87.925781 128.167969 87.460938 128.746094 C 86.996094 129.324219 86.484375 129.855469 85.929688 130.339844 C 85.375 130.820312 84.78125 131.246094 84.160156 131.609375 C 83.535156 131.976562 82.886719 132.277344 82.214844 132.511719 C 81.546875 132.75 80.867188 132.914062 80.179688 133.011719 C 79.488281 133.109375 78.804688 133.132812 78.121094 133.085938 C 77.441406 133.039062 76.773438 132.921875 76.125 132.734375 C 75.476562 132.546875 74.859375 132.292969 74.269531 131.972656 C 73.679688 131.652344 73.128906 131.269531 72.621094 130.824219 C 72.109375 130.382812 71.652344 129.886719 71.242188 129.339844 C 70.832031 128.792969 70.484375 128.203125 70.191406 127.574219 C 69.898438 126.941406 69.671875 126.28125 69.503906 125.589844 C 69.339844 124.902344 69.242188 124.195312 69.210938 123.472656 C 69.179688 122.746094 69.21875 122.023438 69.320312 121.292969 C 69.425781 120.566406 69.59375 119.851562 69.828125 119.144531 C 70.066406 118.441406 70.359375 117.761719 70.71875 117.105469 C 71.074219 116.449219 71.484375 115.832031 71.953125 115.253906 C 72.417969 114.675781 72.925781 114.144531 73.484375 113.664062 C 74.039062 113.179688 74.628906 112.757812 75.253906 112.390625 C 75.878906 112.023438 76.527344 111.722656 77.195312 111.488281 C 77.867188 111.253906 78.542969 111.085938 79.234375 110.988281 C 79.921875 110.894531 80.609375 110.867188 81.289062 110.914062 C 81.972656 110.960938 82.636719 111.078125 83.285156 111.265625 C 83.933594 111.453125 84.554688 111.707031 85.144531 112.027344 Z M 85.144531 112.027344 " fill-opacity="1" fill-rule="nonzero"/><path fill="#000000" d="M 78.773438 134.882812 C 76.90625 134.882812 75.082031 134.429688 73.421875 133.523438 C 67.609375 130.359375 65.699219 122.613281 69.164062 116.261719 C 70.828125 113.210938 73.46875 110.925781 76.609375 109.820312 C 79.8125 108.691406 83.144531 108.925781 85.992188 110.476562 C 91.804688 113.640625 93.710938 121.386719 90.246094 127.742188 C 88.585938 130.789062 85.941406 133.074219 82.804688 134.179688 C 81.46875 134.652344 80.109375 134.882812 78.773438 134.882812 Z M 80.632812 112.65625 C 79.691406 112.65625 78.730469 112.820312 77.785156 113.15625 C 75.472656 113.96875 73.515625 115.671875 72.269531 117.953125 C 69.738281 122.59375 71.015625 128.1875 75.113281 130.421875 C 77.070312 131.484375 79.382812 131.636719 81.628906 130.84375 C 83.941406 130.03125 85.898438 128.328125 87.140625 126.050781 C 89.671875 121.40625 88.398438 115.8125 84.296875 113.582031 C 83.167969 112.964844 81.917969 112.65625 80.632812 112.65625 Z M 80.632812 112.65625 " fill-opacity="1" fill-rule="nonzero"/><path fill="#000000" d="M 142.8125 98.414062 C 139.8125 103.917969 134.839844 107.003906 131.714844 105.300781 C 128.585938 103.597656 128.488281 97.753906 131.488281 92.246094 C 134.492188 86.738281 139.460938 83.652344 142.589844 85.355469 C 145.71875 87.058594 145.816406 92.90625 142.8125 98.414062 Z M 142.8125 98.414062 " fill-opacity="1" fill-rule="nonzero"/><path fill="#000000" d="M 133.632812 107.542969 C 132.648438 107.542969 131.714844 107.3125 130.867188 106.851562 C 128.773438 105.710938 127.589844 103.359375 127.535156 100.230469 C 127.488281 97.464844 128.339844 94.328125 129.9375 91.398438 C 133.460938 84.9375 139.390625 81.601562 143.4375 83.804688 C 145.53125 84.945312 146.714844 87.296875 146.769531 90.425781 C 146.816406 93.195312 145.964844 96.332031 144.367188 99.257812 C 142.769531 102.1875 140.597656 104.601562 138.242188 106.0625 C 136.660156 107.046875 135.089844 107.542969 133.632812 107.542969 Z M 140.65625 86.65625 C 138.53125 86.65625 135.3125 88.929688 133.042969 93.089844 C 131.753906 95.457031 131.035156 98.035156 131.070312 100.167969 C 131.101562 101.945312 131.644531 103.25 132.5625 103.75 C 133.476562 104.246094 134.867188 103.996094 136.378906 103.058594 C 138.191406 101.933594 139.972656 99.929688 141.261719 97.566406 C 142.550781 95.203125 143.269531 92.621094 143.230469 90.488281 C 143.203125 88.710938 142.660156 87.40625 141.742188 86.910156 C 141.429688 86.738281 141.0625 86.65625 140.65625 86.65625 Z M 140.65625 86.65625 " fill-opacity="1" fill-rule="nonzero"/><path fill="#000000" d="M 121.640625 140.210938 C 118.636719 145.71875 113.667969 148.800781 110.542969 147.097656 C 107.414062 145.394531 107.3125 139.550781 110.316406 134.042969 C 113.320312 128.535156 118.289062 125.453125 121.417969 127.15625 C 124.542969 128.855469 124.644531 134.703125 121.640625 140.210938 Z M 121.640625 140.210938 " fill-opacity="1" fill-rule="nonzero"/><path fill="#000000" d="M 112.429688 149.328125 C 111.460938 149.328125 110.539062 149.109375 109.695312 148.652344 C 105.648438 146.449219 105.238281 139.660156 108.761719 133.195312 C 110.359375 130.269531 112.535156 127.851562 114.886719 126.394531 C 117.546875 124.742188 120.167969 124.460938 122.261719 125.601562 C 124.359375 126.742188 125.542969 129.09375 125.597656 132.226562 C 125.644531 134.992188 124.792969 138.128906 123.195312 141.054688 C 120.40625 146.171875 116.105469 149.328125 112.429688 149.328125 Z M 119.496094 128.457031 C 118.703125 128.457031 117.753906 128.777344 116.753906 129.398438 C 114.941406 130.523438 113.160156 132.523438 111.871094 134.890625 C 109.164062 139.851562 109.445312 144.488281 111.386719 145.546875 C 111.699219 145.714844 112.070312 145.800781 112.476562 145.800781 C 114.601562 145.800781 117.816406 143.527344 120.085938 139.363281 C 121.378906 137 122.097656 134.417969 122.058594 132.285156 C 122.027344 130.511719 121.484375 129.207031 120.570312 128.707031 C 120.261719 128.539062 119.898438 128.457031 119.496094 128.457031 Z M 119.496094 128.457031 " fill-opacity="1" fill-rule="nonzero"/><path fill="#000000" d="M 163.933594 99.757812 C 160.929688 105.265625 156.597656 108.695312 154.261719 107.421875 C 151.921875 106.148438 152.460938 100.652344 155.464844 95.144531 C 158.46875 89.636719 162.796875 86.207031 165.136719 87.480469 C 167.476562 88.753906 166.9375 94.25 163.933594 99.757812 Z M 163.933594 99.757812 " fill-opacity="1" fill-rule="nonzero"/><path fill="#000000" d="M 155.375 109.472656 C 154.695312 109.472656 154.035156 109.316406 153.414062 108.976562 C 149.613281 106.90625 150.789062 100.027344 153.910156 94.300781 C 155.476562 91.433594 157.441406 88.976562 159.449219 87.382812 C 162.714844 84.796875 164.945312 85.359375 165.984375 85.925781 C 169.78125 87.996094 168.609375 94.875 165.484375 100.601562 C 162.875 105.390625 158.847656 109.472656 155.375 109.472656 Z M 164.03125 88.980469 C 163.59375 88.980469 162.769531 89.265625 161.648438 90.152344 C 160.027344 91.4375 158.339844 93.566406 157.019531 95.992188 C 154.035156 101.460938 154.328125 105.445312 155.105469 105.871094 C 155.886719 106.292969 159.398438 104.378906 162.378906 98.910156 C 165.363281 93.441406 165.066406 89.453125 164.289062 89.03125 C 164.230469 89 164.144531 88.980469 164.03125 88.980469 Z M 163.933594 99.757812 Z M 163.933594 99.757812 " fill-opacity="1" fill-rule="nonzero"/><path fill="#000000" d="M 142.445312 141.382812 C 139.441406 146.890625 135.109375 150.324219 132.773438 149.050781 C 130.433594 147.777344 130.972656 142.277344 133.976562 136.769531 C 136.980469 131.265625 141.308594 127.832031 143.648438 129.105469 C 145.988281 130.378906 145.449219 135.875 142.445312 141.382812 Z M 142.445312 141.382812 " fill-opacity="1" fill-rule="nonzero"/><path fill="#000000" d="M 133.886719 151.097656 C 133.207031 151.097656 132.546875 150.941406 131.925781 150.601562 C 130.886719 150.035156 129.203125 148.46875 129.609375 144.324219 C 129.859375 141.777344 130.859375 138.792969 132.421875 135.925781 C 135.546875 130.199219 140.695312 125.484375 144.496094 127.550781 C 148.292969 129.621094 147.121094 136.5 143.996094 142.230469 C 141.386719 147.015625 137.359375 151.097656 133.886719 151.097656 Z M 142.535156 130.601562 C 141.40625 130.601562 138.25 132.632812 135.53125 137.617188 C 134.207031 140.042969 133.332031 142.613281 133.132812 144.671875 C 132.957031 146.453125 133.328125 147.339844 133.617188 147.496094 C 134.398438 147.921875 137.910156 146.003906 140.890625 140.535156 C 143.875 135.066406 143.578125 131.082031 142.800781 130.65625 C 142.734375 130.621094 142.640625 130.601562 142.535156 130.601562 Z M 142.445312 141.382812 Z M 142.445312 141.382812 " fill-opacity="1" fill-rule="nonzero"/><path fill="#000000" d="M 125.097656 50.660156 C 130.609375 53.660156 134.042969 57.988281 132.769531 60.324219 C 131.496094 62.664062 125.996094 62.125 120.484375 59.121094 C 114.972656 56.121094 111.539062 51.792969 112.8125 49.457031 C 114.085938 47.121094 119.585938 47.660156 125.097656 50.660156 Z M 125.097656 50.660156 " fill-opacity="1" fill-rule="nonzero"/><path fill="#000000" d="M 129.285156 63.554688 C 126.402344 63.554688 122.839844 62.417969 119.636719 60.675781 C 116.769531 59.113281 114.3125 57.148438 112.71875 55.140625 C 110.128906 51.878906 110.691406 49.648438 111.257812 48.609375 C 113.328125 44.816406 120.214844 45.988281 125.945312 49.109375 C 128.8125 50.671875 131.273438 52.636719 132.863281 54.644531 C 135.453125 57.90625 134.890625 60.132812 134.324219 61.171875 C 133.410156 62.847656 131.558594 63.554688 129.285156 63.554688 Z M 116.296875 49.78125 C 115.210938 49.78125 114.527344 50.007812 114.367188 50.304688 C 114.207031 50.59375 114.375 51.539062 115.488281 52.941406 C 116.777344 54.5625 118.90625 56.25 121.332031 57.570312 C 126.804688 60.550781 130.792969 60.257812 131.214844 59.480469 C 131.375 59.1875 131.207031 58.246094 130.09375 56.839844 C 128.808594 55.222656 126.679688 53.535156 124.253906 52.210938 C 120.871094 50.371094 118.054688 49.78125 116.296875 49.78125 Z M 116.296875 49.78125 " fill-opacity="1" fill-rule="nonzero"/></svg>