<svg xmlns="http://www.w3.org/2000/svg" xmlns:xlink="http://www.w3.org/1999/xlink" width="256" zoomAndPan="magnify" viewBox="0 0 192 199.92" height="256" preserveAspectRatio="xMidYMid meet" version="1.0"><defs><clipPath id="e1be39b7f7"><path d="M 19.230469 24.367188 L 171.417969 24.367188 L 171.417969 167.558594 L 19.230469 167.558594 Z M 19.230469 24.367188 " clip-rule="nonzero"/></clipPath></defs><g clip-path="url(#e1be39b7f7)"><path fill="#000000" d="M 168.113281 24.957031 C 166.421875 24.15625 164.246094 24.167969 162.300781 24.992188 C 160.3125 25.839844 158.820312 27.289062 157.5 28.566406 C 137.6875 47.808594 114.71875 72.023438 97.953125 89.703125 C 96.257812 91.488281 96.136719 94.285156 97.667969 96.210938 C 98.554688 97.328125 99.878906 98.015625 101.308594 98.09375 C 101.398438 98.097656 101.488281 98.097656 101.585938 98.097656 C 102.914062 98.097656 104.191406 97.570312 105.132812 96.625 C 108.011719 93.730469 111.339844 90.476562 114.953125 87.003906 C 126.484375 87.507812 136.390625 88.359375 143.617188 89.464844 C 150.636719 90.539062 154.652344 92.464844 155.675781 93.496094 C 155.660156 93.59375 155.652344 93.691406 155.652344 93.792969 C 155.648438 93.792969 155.644531 93.796875 155.640625 93.800781 C 146.546875 100.566406 128.363281 104.519531 104.433594 104.925781 C 84.816406 105.257812 62.445312 103.070312 47.445312 99.359375 C 35.625 96.433594 34.160156 93.988281 34.03125 93.71875 C 33.941406 93.53125 33.960938 93.5 34.019531 93.398438 C 34.316406 92.898438 35.988281 91.152344 44.996094 89.515625 C 51.179688 88.390625 59.417969 87.566406 69.472656 87.058594 C 75.503906 92.765625 81.050781 98.113281 85.519531 102.613281 C 86.460938 103.558594 87.738281 104.085938 89.070312 104.085938 C 89.160156 104.085938 89.253906 104.082031 89.347656 104.082031 C 90.773438 104 92.097656 103.316406 92.984375 102.199219 C 94.515625 100.273438 94.394531 97.472656 92.703125 95.6875 C 75.929688 78.011719 52.964844 53.796875 33.148438 34.554688 C 31.828125 33.273438 30.335938 31.824219 28.347656 30.980469 C 26.402344 30.15625 24.226562 30.144531 22.535156 30.945312 C 21.042969 31.65625 20 32.917969 19.515625 34.601562 C 19.09375 36.050781 19.167969 37.628906 19.730469 39.15625 C 20.613281 41.554688 22.394531 43.410156 23.851562 44.761719 C 27.59375 48.230469 31.921875 52.21875 36.503906 56.433594 C 45.679688 64.886719 56.113281 74.492188 65.675781 83.484375 C 57.070312 84.007812 49.894531 84.785156 44.316406 85.800781 C 34.097656 87.660156 31.6875 89.921875 30.765625 91.460938 C 30.699219 91.578125 30.644531 91.691406 30.585938 91.804688 C 30.421875 92.023438 30.304688 92.28125 30.246094 92.566406 C 25.675781 115.460938 28.441406 140.949219 30.542969 151.226562 C 31.238281 154.625 33.5625 157.460938 36.765625 158.816406 C 50.167969 164.496094 69.640625 167.5625 92.015625 167.5625 C 93.75 167.5625 95.5 167.542969 97.265625 167.503906 C 118.925781 167.050781 140.445312 163.699219 153.429688 158.753906 C 157.191406 157.320312 159.789062 153.957031 160.203125 149.976562 C 161.226562 140.128906 163.1875 115.246094 159.585938 94.503906 C 159.746094 93.859375 159.679688 93.289062 159.582031 92.894531 C 158.425781 88.261719 147.507812 86.242188 144.1875 85.734375 C 137.597656 84.726562 128.847656 83.929688 118.71875 83.40625 C 129.808594 72.855469 142.914062 60.785156 154.136719 50.449219 C 158.71875 46.230469 163.046875 42.246094 166.789062 38.777344 C 168.246094 37.429688 170.027344 35.574219 170.910156 33.171875 C 171.472656 31.644531 171.546875 30.070312 171.128906 28.617188 C 170.648438 26.929688 169.601562 25.667969 168.113281 24.957031 Z M 26.433594 41.992188 C 25.21875 40.863281 23.890625 39.488281 23.292969 37.855469 C 23.097656 37.320312 22.914062 36.503906 23.15625 35.652344 C 23.339844 35.019531 23.667969 34.597656 24.167969 34.363281 C 24.488281 34.210938 24.878906 34.136719 25.300781 34.136719 C 25.808594 34.136719 26.355469 34.246094 26.867188 34.464844 C 28.203125 35.03125 29.378906 36.167969 30.507812 37.269531 C 50.269531 56.457031 73.199219 80.636719 89.945312 98.292969 C 90.359375 98.726562 90.386719 99.382812 90.011719 99.851562 C 89.71875 100.21875 89.335938 100.296875 89.132812 100.304688 C 88.925781 100.316406 88.539062 100.285156 88.203125 99.949219 C 75.863281 87.535156 55.464844 68.75 39.070312 53.652344 C 34.496094 49.4375 30.171875 45.453125 26.433594 41.992188 Z M 46.535156 103.035156 C 60.804688 106.566406 81.570312 108.746094 100.472656 108.746094 C 101.824219 108.746094 103.167969 108.730469 104.5 108.710938 C 133.917969 108.207031 148.824219 102.8125 156.308594 97.945312 C 156.746094 100.890625 157.074219 103.902344 157.3125 106.933594 C 147.933594 112.171875 137.28125 114.320312 129.054688 115.601562 C 96.636719 120.664062 63.132812 117.574219 32.109375 106.679688 C 32.355469 103.796875 32.691406 100.902344 33.136719 98.023438 C 35.226562 99.433594 39.121094 101.195312 46.535156 103.035156 Z M 156.4375 149.585938 C 156.421875 149.746094 156.394531 149.90625 156.371094 150.0625 L 137.511719 117.914062 C 143.917969 116.558594 150.964844 114.511719 157.589844 111.078125 C 158.460938 126.886719 157.191406 142.351562 156.4375 149.585938 Z M 133.421875 118.707031 L 119.503906 159.1875 L 99.828125 121.746094 C 109.796875 121.675781 119.765625 120.878906 129.632812 119.339844 C 130.847656 119.148438 132.113281 118.941406 133.421875 118.707031 Z M 94.039062 121.707031 L 75.339844 160.429688 L 54.964844 117.078125 C 67.8125 119.871094 80.914062 121.421875 94.039062 121.707031 Z M 31.820312 110.589844 C 37.582031 112.578125 43.425781 114.304688 49.328125 115.765625 C 47.359375 120.648438 41.460938 135.296875 34.824219 152.113281 C 34.566406 151.597656 34.375 151.046875 34.257812 150.46875 C 32.730469 143.011719 30.847656 127.324219 31.820312 110.589844 Z M 37.722656 155.085938 C 43.761719 139.769531 49.28125 126.023438 51.914062 119.484375 L 72.328125 162.917969 C 58.808594 161.667969 47.117188 159.097656 38.246094 155.339844 C 38.066406 155.261719 37.890625 155.175781 37.722656 155.085938 Z M 97.191406 163.726562 C 95.441406 163.765625 93.710938 163.78125 91.996094 163.78125 C 87.222656 163.78125 82.589844 163.640625 78.128906 163.363281 L 96.945312 124.394531 L 116.972656 162.503906 C 110.570312 163.167969 103.890625 163.585938 97.191406 163.726562 Z M 152.082031 155.222656 C 144.632812 158.058594 134.238281 160.359375 122.59375 161.855469 L 136.011719 122.832031 L 154.238281 153.90625 C 153.613281 154.460938 152.890625 154.914062 152.082031 155.222656 Z M 167.359375 31.871094 C 166.757812 33.503906 165.433594 34.875 164.21875 36.003906 C 160.480469 39.46875 156.15625 43.453125 151.574219 47.671875 C 135.183594 62.769531 114.777344 81.550781 102.441406 93.96875 C 102.105469 94.300781 101.71875 94.332031 101.511719 94.324219 C 101.308594 94.3125 100.925781 94.238281 100.632812 93.871094 C 100.257812 93.402344 100.289062 92.746094 100.699219 92.3125 C 117.445312 74.652344 140.378906 50.472656 160.136719 31.285156 C 161.269531 30.1875 162.441406 29.050781 163.777344 28.480469 C 164.285156 28.265625 164.835938 28.15625 165.34375 28.15625 C 165.765625 28.15625 166.160156 28.230469 166.476562 28.382812 C 166.972656 28.617188 167.304688 29.039062 167.488281 29.671875 C 167.742188 30.515625 167.558594 31.332031 167.359375 31.871094 Z M 167.359375 31.871094 " fill-opacity="1" fill-rule="nonzero"/></g><path fill="#000000" d="M 84.535156 71.152344 C 84.890625 71.75 85.519531 72.085938 86.171875 72.085938 C 86.496094 72.085938 86.828125 72 87.128906 71.824219 C 88.035156 71.292969 88.332031 70.136719 87.804688 69.238281 L 77.929688 52.492188 C 77.398438 51.589844 76.238281 51.289062 75.335938 51.820312 C 74.433594 52.347656 74.136719 53.507812 74.664062 54.40625 Z M 84.535156 71.152344 " fill-opacity="1" fill-rule="nonzero"/><path fill="#000000" d="M 112.351562 50.871094 L 104.894531 69.15625 C 104.5 70.121094 104.96875 71.226562 105.933594 71.621094 C 106.167969 71.714844 106.410156 71.757812 106.648438 71.757812 C 107.394531 71.757812 108.101562 71.3125 108.402344 70.578125 L 115.859375 52.296875 C 116.253906 51.328125 115.785156 50.226562 114.820312 49.832031 C 113.851562 49.441406 112.746094 49.902344 112.351562 50.871094 Z M 112.351562 50.871094 " fill-opacity="1" fill-rule="nonzero"/><path fill="#000000" d="M 96.273438 44.554688 C 95.234375 44.554688 94.386719 45.386719 94.378906 46.425781 L 94.179688 66.164062 C 94.171875 67.207031 95.007812 68.066406 96.054688 68.074219 C 96.0625 68.074219 96.066406 68.074219 96.074219 68.074219 C 97.113281 68.074219 97.957031 67.238281 97.96875 66.203125 L 98.167969 46.464844 C 98.175781 45.421875 97.335938 44.5625 96.292969 44.554688 C 96.285156 44.554688 96.277344 44.554688 96.273438 44.554688 Z M 96.273438 44.554688 " fill-opacity="1" fill-rule="nonzero"/></svg>